<svg width="180" height="232" viewBox="0 0 180 232" fill="none" xmlns="http://www.w3.org/2000/svg">
<path d="M74.957 17.0593C70.9826 1.21131 99.0312 -3.99984 99.2752 17.2865L74.957 17.0593Z" fill="#B0ECFF"/>
<g opacity="0.4">
<path d="M89.3851 14.7535C89.479 16.0802 88.1902 16.1957 87.1974 16.2659C86.2046 16.3362 84.8398 16.7127 84.7459 15.386C84.9255 14.7022 86.0908 11.9312 86.8461 11.3024C87.2118 11.4904 88.5984 13.712 89.3851 14.7535Z" fill="#B6B6B6"/>
<path d="M89.507 7.56477C87.138 3.70339 83.8056 6.67823 83.6512 8.11211C83.5472 9.07878 83.7368 9.32117 84.041 9.77928L86.019 11.9736C86.5198 12.4977 87.2824 12.2039 87.594 11.8621C87.594 11.8621 89.1694 10.0236 89.45 9.39645C89.7305 8.7693 89.7058 7.88882 89.507 7.56477Z" fill="#C4C4C4"/>
<path d="M89.2192 7.97892C89.2533 8.49954 88.9103 8.87212 88.4159 9.18543C87.9216 9.49874 87.5521 9.5538 86.9563 9.49446C87.0959 8.80895 87.3291 8.50488 87.8234 8.19157C88.3178 7.87827 88.8579 7.89329 89.2192 7.97892Z" fill="#00751A"/>
<path d="M83.9112 8.3544C83.9508 8.87462 84.3428 9.19518 84.8764 9.43574C85.4099 9.6763 85.7835 9.67876 86.3649 9.53611C86.1302 8.87708 85.8565 8.60889 85.323 8.36834C84.7894 8.12778 84.2568 8.21873 83.9112 8.3544Z" fill="#00751A"/>
</g>
<path d="M45.5095 19.5031C63.2318 27.1799 105.774 28.2755 126.502 19.3634C114.384 14.0366 71.6317 11.2104 45.5095 19.5031Z" fill="#0082AB"/>
<path d="M45.7189 19.4362C63.9862 15.0235 102.46 13.7989 126.34 19.2322C110.828 9.4107 67.0478 7.98197 45.7189 19.4362Z" fill="#3ABEE8"/>
<path d="M88.9889 87.8109L70.0073 85.0555L88.9889 76.8914L108.889 85.1575L88.9889 87.8109Z" fill="#87613D"/>
<ellipse cx="86.4376" cy="23.1101" rx="12.4503" ry="2.34719" fill="#004054"/>
<path d="M89.2949 57.5015L86.7437 24.7429" stroke="#652CB3"/>
<path d="M70.6196 84.4431L78.9878 22.0896" stroke="#652CB3"/>
<path d="M108.276 84.5451L95.3159 21.9875" stroke="#652CB3"/>
<path d="M70.1094 85.0554L89.2951 57.1953V77.8097L70.1094 85.0554Z" fill="#FAC46F"/>
<path d="M108.889 85.1574L89.2953 57.1953V77.9118L108.889 85.1574Z" fill="#D4995D"/>
<path d="M89.397 77.7077L86.0293 21.3752" stroke="#652CB3"/>
<path d="M66.1294 112.507L0 210.068L89.8054 230.989L179.713 210.068L117.665 117.61L89.8054 103.629L66.1294 112.507Z" fill="#FAC46F"/>
<path d="M117.666 117.61L89.8057 103.629V231.193L179.713 210.068L117.666 117.61Z" fill="#D4995D"/>
</svg>
