<svg width="75" height="38" viewBox="0 0 75 38" fill="none" xmlns="http://www.w3.org/2000/svg">
<path d="M0.110901 33.8064C13.1991 40.9051 57.344 39.0195 73.9815 16.1706C62.2243 10.8466 22.8488 15.8379 0.110901 33.8064Z" fill="#00786A"/>
<path d="M21.6289 18.7218C13.6429 2.86066 42.1485 -9.34019 47.4725 13.1759L21.6289 18.7218Z" fill="#97FFF3"/>
<g opacity="0.4">
<path d="M36.3807 12.8433C36.796 14.2279 35.4567 14.657 34.4205 14.9678C33.3844 15.2786 32.0266 16.0026 31.6113 14.6179C31.639 13.85 32.2155 10.6341 32.8669 9.78759C33.2994 9.8999 35.2986 11.926 36.3807 12.8433Z" fill="#B6B6B6"/>
<path d="M34.7998 5.19023C31.3686 1.65895 28.5424 5.60676 28.72 7.16412C28.8397 8.21402 29.0984 8.42596 29.5301 8.8394L32.1499 10.6958C32.8057 11.1325 33.5445 10.6394 33.7936 10.2028C33.7936 10.2028 35.0268 7.87815 35.1751 7.1463C35.3235 6.41445 35.0877 5.48658 34.7998 5.19023Z" fill="#C4C4C4"/>
<path d="M34.5931 5.69769C34.7531 6.24169 34.478 6.71844 34.0283 7.16833C33.5786 7.61823 33.1999 7.76454 32.5539 7.84338C32.5388 7.0832 32.7138 6.70523 33.1635 6.25534C33.6131 5.80544 34.1895 5.69286 34.5931 5.69769Z" fill="#212121"/>
<path d="M29.0535 7.35963C29.2193 7.9019 29.7113 8.14857 30.3344 8.27672C30.9574 8.40488 31.3542 8.3186 31.9369 8.02894C31.5312 7.38589 31.1771 7.16662 30.554 7.03846C29.931 6.91031 29.3878 7.1335 29.0535 7.35963Z" fill="#212121"/>
</g>
<ellipse cx="40.5644" cy="30.6902" rx="13.7537" ry="4.43667" transform="rotate(-12.5067 40.5644 30.6902)" fill="#002C27"/>
<path d="M0 33.8066C14.3083 25.5987 47.5833 10.4031 74.2034 16.1708C54.2383 6.63195 19.1664 8.78374 0 33.8066Z" fill="#00DDC2"/>
<ellipse cx="5.29764" cy="33.3466" rx="1.55284" ry="0.887335" transform="rotate(-17.5717 5.29764 33.3466)" fill="#FFE870"/>
<ellipse cx="11.0652" cy="30.4628" rx="1.55284" ry="0.887335" transform="rotate(-17.5717 11.0652 30.4628)" fill="#97FFF3"/>
<ellipse cx="17.0548" cy="27.801" rx="1.55284" ry="0.887335" transform="rotate(-17.5717 17.0548 27.801)" fill="#FFE870"/>
<ellipse cx="22.3788" cy="25.3608" rx="1.55284" ry="0.887335" transform="rotate(-17.5717 22.3788 25.3608)" fill="#97FFF3"/>
<ellipse cx="27.9246" cy="23.3639" rx="1.55284" ry="0.887335" transform="rotate(-17.5717 27.9246 23.3639)" fill="#FFE870"/>
<ellipse cx="33.4704" cy="21.5897" rx="1.55284" ry="0.887334" transform="rotate(-13.9966 33.4704 21.5897)" fill="#97FFF3"/>
<ellipse cx="39.1634" cy="19.8435" rx="1.55284" ry="0.887335" transform="rotate(-9.09014 39.1634 19.8435)" fill="#FFE870"/>
<ellipse cx="45.1579" cy="18.5232" rx="1.55284" ry="0.887335" transform="rotate(-9.54738 45.1579 18.5232)" fill="#97FFF3"/>
<ellipse cx="51.3501" cy="17.3725" rx="1.55284" ry="0.887334" transform="rotate(-7.8406 51.3501 17.3725)" fill="#FFE870"/>
<ellipse cx="57.2763" cy="16.8032" rx="1.55284" ry="0.887335" transform="rotate(-2.91952 57.2763 16.8032)" fill="#97FFF3"/>
<ellipse cx="63.2398" cy="16.5341" rx="1.55284" ry="0.887334" transform="rotate(1.13248 63.2398 16.5341)" fill="#FFE870"/>
<ellipse cx="69.4935" cy="17.0563" rx="1.55284" ry="0.887334" transform="rotate(4.10595 69.4935 17.0563)" fill="#97FFF3"/>
</svg>
